<?xml version="1.0" encoding="UTF-8"?>
<svg width="264px" height="50px" viewBox="0 0 264 50" version="1.1" xmlns="http://www.w3.org/2000/svg" xmlns:xlink="http://www.w3.org/1999/xlink" xmlns:sketch="http://www.bohemiancoding.com/sketch/ns">
    <!-- Generator: Sketch 3.4.2 (15855) - http://www.bohemiancoding.com/sketch -->
    <title>GrazeCart</title>
    <defs></defs>
    <g id="Page-1" stroke="none" stroke-width="1" fill="none" fill-rule="evenodd" sketch:type="MSPage">
        <g id="graze-cart..." sketch:type="MSLayerGroup">
            <g id="Text" transform="translate(75.551220, 11.160976)" sketch:type="MSShapeGroup">
                <path d="M18.7490054,13.6118572 L24.6425625,13.6118572 L24.6425625,22.92224 C22.0399914,25.82533 18.4361145,27.2770123 13.8314812,27.2770123 C9.97762122,27.2770123 6.7429501,26.0006088 4.12774253,23.4478018 C1.51280967,20.8949947 0.205205888,17.6723918 0.205205888,13.7808172 C0.205205888,9.8889678 1.53780798,6.64163902 4.20301216,4.0385561 C6.86821634,1.4357479 10.0839327,0.134343805 13.850436,0.134343805 C17.6166645,0.134343805 20.8886957,1.37310907 23.6665296,3.85091434 L20.6260761,8.24332488 C19.4497822,7.21720195 18.3674378,6.51004254 17.3790432,6.12212137 C16.3903739,5.7342002 15.3206661,5.54023961 14.1693704,5.54023961 C11.9420487,5.54023961 10.0652526,6.2974002 8.53870764,7.81144663 C7.01216264,9.3257678 6.24875278,11.3216937 6.24875278,13.7994989 C6.24875278,16.2773042 6.98084608,18.2608671 8.44475796,19.749913 C9.90894455,21.2389588 11.6544308,21.9837565 13.6814913,21.9837565 C15.7085519,21.9837565 17.3977233,21.5958353 18.7490054,20.8197182 L18.7490054,13.6118572 L18.7490054,13.6118572 Z M39.920649,11.7346154 C38.2441142,11.7346154 36.9928253,12.3291348 36.1667823,13.5178989 C35.341014,14.706663 34.9281299,16.2773042 34.9281299,18.2295477 L34.9281299,26.9767305 L29.2974671,26.9767305 L29.2974671,6.77900488 L34.9281299,6.77900488 L34.9281299,9.44472663 C35.6539049,8.61860839 36.5609864,7.91804254 37.6496489,7.34220488 C38.7383115,6.76664195 39.8456541,6.4663602 40.9719515,6.44135961 L41.0093116,11.7346154 L39.920649,11.7346154 L39.920649,11.7346154 Z M61.6930761,26.9767305 L56.4003026,26.9767305 L56.4003026,24.5365635 C54.9487525,26.3635294 53.152995,27.2770123 51.0135794,27.2770123 C48.873889,27.2770123 47.0781315,26.6574923 45.6265814,25.418727 C44.175306,24.179687 43.449531,22.528 43.449531,20.4631165 C43.449531,18.398233 44.2003043,16.8528671 45.701851,15.8267442 C47.2033977,14.8006213 49.2554566,14.2874224 51.8580277,14.2874224 L56.0624134,14.2874224 L56.0624134,14.1750572 C56.0624134,12.0225342 54.9237542,10.9464101 52.6464358,10.9464101 C51.670403,10.9464101 50.6380553,11.1403707 49.5493928,11.5282919 C48.4607302,11.9162131 47.5410122,12.3978178 46.7902389,12.9736554 L44.2752993,9.33208663 C46.9278669,7.40484371 49.9559586,6.44135961 53.3595744,6.44135961 C55.8121556,6.44135961 57.8142178,7.05456078 59.3657612,8.28096312 C60.9173045,9.50736546 61.6930761,11.4469713 61.6930761,14.0997807 L61.6930761,26.9767305 L61.6930761,26.9767305 Z M56.0247786,19.2806712 L56.0247786,18.3045495 L52.4961713,18.3045495 C50.2438512,18.3045495 49.1178286,19.00539 49.1178286,20.4067965 C49.1178286,21.1326377 49.3867664,21.6895188 49.9249168,22.07744 C50.4627925,22.4653612 51.2325206,22.6593218 52.2335517,22.6593218 C53.2345828,22.6593218 54.116666,22.3527212 54.8798011,21.73952 C55.643211,21.1263188 56.0247786,20.3067941 56.0247786,19.2806712 L56.0247786,19.2806712 Z M66.4603358,11.4343337 L66.4603358,6.77900488 L82.75209,6.77900488 L82.75209,11.1714154 L72.9546764,22.2840382 L83.3152387,22.2840382 L83.3152387,26.9767305 L65.7471973,26.9767305 L65.7471973,22.3214018 L75.2819913,11.4343337 L66.4603358,11.4343337 L66.4603358,11.4343337 Z M105.087666,24.0483653 C102.810347,26.2008882 100.138825,27.2770123 97.0730985,27.2770123 C94.007372,27.2770123 91.4737523,26.33221 89.4714153,24.4426053 C87.4696278,22.5530006 86.4685966,20.0188753 86.4685966,16.8405042 C86.4685966,13.6618583 87.4883078,11.1340519 89.5277302,9.25681015 C91.5674273,7.37984312 93.9760554,6.44135961 96.7538893,6.44135961 C99.5317232,6.44135961 101.890629,7.27984078 103.830059,8.95652839 C105.769488,10.6334907 106.739202,12.9360172 106.739202,15.8643824 L106.739202,18.8677495 L92.0242645,18.8677495 C92.1995273,19.9688741 92.7750378,20.8699941 93.7510706,21.57056 C94.7268288,22.2714006 95.8281278,22.6219582 97.0544184,22.6219582 C99.0314824,22.6219582 100.658021,21.9587559 101.934308,20.6320765 L105.087666,24.0483653 L105.087666,24.0483653 Z M101.03327,14.8506224 C100.908278,13.6492207 100.457759,12.7233748 99.6819878,12.0725354 C98.9062161,11.421696 97.9614999,11.0964137 96.847839,11.0964137 C95.7341781,11.0964137 94.714467,11.4343337 93.7884307,12.1101737 C92.8626692,12.7857389 92.3245189,13.6994966 92.1742543,14.8506224 L101.03327,14.8506224 L101.03327,14.8506224 Z" id="Fill-3" fill="#4D4D4D"></path>
                <path d="M123.902601,22.9596035 C125.429146,22.9596035 126.743068,22.7032788 127.844092,22.19008 C128.945391,21.6771559 130.096687,20.8573565 131.297705,19.7312312 L134.150808,22.6593218 C131.372974,25.7379653 128.000675,27.2770123 124.034185,27.2770123 C120.067421,27.2770123 116.77671,26.0006088 114.161502,23.4478018 C111.546294,20.8949947 110.238691,17.6663477 110.238691,13.7618607 C110.238691,9.85764839 111.571293,6.60400078 114.236497,4.00091785 C116.901701,1.39810966 120.267682,0.096705561 124.33444,0.096705561 C128.400923,0.096705561 131.79822,1.59838907 134.526057,4.6017561 L131.710589,7.68012488 C130.459574,6.47872312 129.276962,5.64051668 128.163301,5.1649561 C127.049641,4.68939551 125.742037,4.45147785 124.24049,4.45147785 C121.587922,4.45147785 119.360601,5.30864078 117.5588,7.02324137 C115.756998,8.73756722 114.855961,10.9274537 114.855961,13.5929007 C114.855961,16.2586224 115.75068,18.4858724 117.539845,20.2754747 C119.329284,22.0648023 121.450294,22.9596035 123.902601,22.9596035 L123.902601,22.9596035 Z M155.134827,26.9767305 L151.305691,26.9767305 L151.305691,24.3112835 C149.654154,26.2885276 147.439194,27.2770123 144.66136,27.2770123 C142.584303,27.2770123 140.863815,26.6888117 139.499897,25.5124105 C138.135978,24.3362841 137.454156,22.7656429 137.454156,20.8010365 C137.454156,18.83643 138.179931,17.366066 139.631206,16.3899442 C141.082756,15.4138224 143.047184,14.9256242 145.524763,14.9256242 L150.967801,14.9256242 L150.967801,14.1750572 C150.967801,11.5219731 149.491528,10.1955684 146.538431,10.1955684 C144.686359,10.1955684 142.759566,10.8711337 140.757504,12.2228137 L138.880433,9.59473015 C141.308016,7.66776195 144.060851,6.70400312 147.13894,6.70400312 C149.491528,6.70400312 151.412002,7.29852254 152.901187,8.48728663 C154.390097,9.67605073 155.134827,11.5469737 155.134827,14.0997807 L155.134827,26.9767305 L155.134827,26.9767305 Z M150.930441,19.5433147 L150.930441,17.8539895 L146.200542,17.8539895 C143.17245,17.8539895 141.658267,18.8051106 141.658267,20.707353 C141.658267,21.6832 142.033791,22.4277229 142.784564,22.9409218 C143.535338,23.4541206 144.580047,23.7104453 145.918967,23.7104453 C147.257888,23.7104453 148.427864,23.3351618 149.428895,22.58432 C150.429926,21.8334782 150.930441,20.8197182 150.930441,19.5433147 L150.930441,19.5433147 Z M171.463941,10.9464101 C169.386884,10.9464101 167.822704,11.6219754 166.771677,12.9736554 C165.720649,14.3250607 165.19486,16.1396636 165.19486,18.4171895 L165.19486,26.9767305 L160.990749,26.9767305 L160.990749,7.00455961 L165.19486,7.00455961 L165.19486,11.0214119 C165.870639,9.77000898 166.790357,8.74388605 167.954014,7.94304312 C169.117672,7.14192546 170.35028,6.72900371 171.651566,6.70400312 L171.689201,10.9464101 L171.463941,10.9464101 L171.463941,10.9464101 Z M181.07373,10.3832101 L181.07373,20.5194365 C181.07373,21.4705577 181.323988,22.2277182 181.824504,22.7906435 C182.325019,23.3538435 183.025796,23.6354435 183.926559,23.6354435 C184.827597,23.6354435 185.691,23.1975212 186.516768,22.3214018 L188.243575,25.2874053 C186.767026,26.61381 185.13417,27.2770123 183.34473,27.2770123 C181.555566,27.2770123 180.029021,26.6574923 178.765095,25.418727 C177.501445,24.179687 176.869345,22.5093182 176.869345,20.4067965 L176.869345,10.3832101 L174.354405,10.3832101 L174.354405,7.00455961 L176.869345,7.00455961 L176.869345,0.734907317 L181.07373,0.734907317 L181.07373,7.00455961 L186.329144,7.00455961 L186.329144,10.3832101 L181.07373,10.3832101 L181.07373,10.3832101 Z" id="Fill-4" fill="#34B393"></path>
            </g>
            <g id="Cart" sketch:type="MSShapeGroup">
                <path d="M54.2030634,34.8812683 L22.075122,34.8812683 L8.56776585,4.01172683 L0.183512195,4.01172683 L0.183512195,0.15324878 L11.092722,0.15324878 L24.5998634,31.0225756 L54.2030634,31.0225756 L54.2030634,34.8812683" id="Fill-5" fill="#4D4D4D"></path>
                <path d="M34.9096,43.601639 C34.9096,46.7973268 32.3172488,49.389678 29.1217756,49.389678 C25.9263024,49.389678 23.3337366,46.7973268 23.3337366,43.601639 C23.3337366,40.4063805 25.9263024,37.8138146 29.1217756,37.8138146 C32.3172488,37.8138146 34.9096,40.4063805 34.9096,43.601639 L34.9096,43.601639 Z M32.7937366,43.601639 C32.7937366,45.6290732 31.1489951,47.2738146 29.1217756,47.2738146 C27.0943415,47.2738146 25.4496,45.6290732 25.4496,43.601639 C25.4496,41.5744195 27.0943415,39.929678 29.1217756,39.929678 C31.1489951,39.929678 32.7937366,41.5744195 32.7937366,43.601639 L32.7937366,43.601639 Z" id="Fill-6" fill="#34B393"></path>
                <path d="M27.1924293,27.1638829 L54.2030634,27.1638829 L55.748,23.3051902 L57.2892878,19.4464976 L58.8342244,15.5878049 L49.7021854,15.5878049 L49.7021854,19.4464976 L52.9178341,19.4464976 L51.5085463,23.3051902 L31.5862049,23.3051902 L27.0563512,9.5297561 L60.3755122,9.5297561 L61.9204488,5.43947317 L19.4769756,5.43947317 L27.1924293,27.1638829" id="Fill-7" fill="#34B393"></path>
                <path d="M51.6306732,43.601639 C51.6306732,46.7973268 49.0381073,49.389678 45.8426341,49.389678 C42.647161,49.389678 40.0545951,46.7973268 40.0545951,43.601639 C40.0545951,40.4063805 42.647161,37.8138146 45.8426341,37.8138146 C49.0381073,37.8138146 51.6306732,40.4063805 51.6306732,43.601639 L51.6306732,43.601639 Z M49.5148098,43.601639 C49.5148098,45.6290732 47.8700683,47.2738146 45.8426341,47.2738146 C43.8152,47.2738146 42.1704585,45.6290732 42.1704585,43.601639 C42.1704585,41.5744195 43.8152,39.929678 45.8426341,39.929678 C47.8700683,39.929678 49.5148098,41.5744195 49.5148098,43.601639 L49.5148098,43.601639 Z" id="Fill-8" fill="#34B393"></path>
            </g>
        </g>
    </g>
</svg>