<?xml version="1.0" encoding="UTF-8"?>
<svg width="62px" height="50px" viewBox="0 0 62 50" version="1.1" xmlns="http://www.w3.org/2000/svg" xmlns:xlink="http://www.w3.org/1999/xlink" xmlns:sketch="http://www.bohemiancoding.com/sketch/ns">
    <!-- Generator: Sketch 3.4.2 (15855) - http://www.bohemiancoding.com/sketch -->
    <title>Cart</title>
    <desc>Created with Sketch.</desc>
    <defs></defs>
    <g id="Page-1" stroke="none" stroke-width="1" fill="none" fill-rule="evenodd" sketch:type="MSPage">
        <g id="graze-cart..." sketch:type="MSLayerGroup">
            <g id="Cart" sketch:type="MSShapeGroup">
                <path d="M54.2030634,34.8812683 L22.075122,34.8812683 L8.56776585,4.01172683 L0.183512195,4.01172683 L0.183512195,0.15324878 L11.092722,0.15324878 L24.5998634,31.0225756 L54.2030634,31.0225756 L54.2030634,34.8812683" id="Fill-5" fill="#4D4D4D"></path>
                <path d="M34.9096,43.601639 C34.9096,46.7973268 32.3172488,49.389678 29.1217756,49.389678 C25.9263024,49.389678 23.3337366,46.7973268 23.3337366,43.601639 C23.3337366,40.4063805 25.9263024,37.8138146 29.1217756,37.8138146 C32.3172488,37.8138146 34.9096,40.4063805 34.9096,43.601639 L34.9096,43.601639 Z M32.7937366,43.601639 C32.7937366,45.6290732 31.1489951,47.2738146 29.1217756,47.2738146 C27.0943415,47.2738146 25.4496,45.6290732 25.4496,43.601639 C25.4496,41.5744195 27.0943415,39.929678 29.1217756,39.929678 C31.1489951,39.929678 32.7937366,41.5744195 32.7937366,43.601639 L32.7937366,43.601639 Z" id="Fill-6" fill="#34B393"></path>
                <path d="M27.1924293,27.1638829 L54.2030634,27.1638829 L55.748,23.3051902 L57.2892878,19.4464976 L58.8342244,15.5878049 L49.7021854,15.5878049 L49.7021854,19.4464976 L52.9178341,19.4464976 L51.5085463,23.3051902 L31.5862049,23.3051902 L27.0563512,9.5297561 L60.3755122,9.5297561 L61.9204488,5.43947317 L19.4769756,5.43947317 L27.1924293,27.1638829" id="Fill-7" fill="#34B393"></path>
                <path d="M51.6306732,43.601639 C51.6306732,46.7973268 49.0381073,49.389678 45.8426341,49.389678 C42.647161,49.389678 40.0545951,46.7973268 40.0545951,43.601639 C40.0545951,40.4063805 42.647161,37.8138146 45.8426341,37.8138146 C49.0381073,37.8138146 51.6306732,40.4063805 51.6306732,43.601639 L51.6306732,43.601639 Z M49.5148098,43.601639 C49.5148098,45.6290732 47.8700683,47.2738146 45.8426341,47.2738146 C43.8152,47.2738146 42.1704585,45.6290732 42.1704585,43.601639 C42.1704585,41.5744195 43.8152,39.929678 45.8426341,39.929678 C47.8700683,39.929678 49.5148098,41.5744195 49.5148098,43.601639 L49.5148098,43.601639 Z" id="Fill-8" fill="#34B393"></path>
            </g>
        </g>
    </g>
</svg>